<?xml version="1.0" standalone="no"?>
<!DOCTYPE svg PUBLIC "-//W3C//DTD SVG 20010904//EN"
 "http://www.w3.org/TR/2001/REC-SVG-20010904/DTD/svg10.dtd">
<svg version="1.0" xmlns="http://www.w3.org/2000/svg"
 width="265.000000pt" height="281.000000pt" viewBox="0 0 265.000000 281.000000"
 preserveAspectRatio="xMidYMid meet">

<g transform="translate(0.000000,281.000000) scale(0.100000,-0.100000)"
fill="#D40000" stroke="none">
<path d="M1783 2680 c-39 -10 -91 -28 -115 -41 -125 -63 -242 -176 -296 -286
-14 -29 -29 -53 -32 -53 -3 0 -15 19 -27 43 -79 162 -239 290 -414 332 -82 19
-216 19 -298 0 -153 -37 -310 -160 -383 -300 -64 -124 -80 -192 -86 -361 -6
-215 21 -340 118 -539 95 -194 224 -368 552 -745 240 -276 386 -451 464 -556
34 -45 63 -74 72 -72 9 2 57 56 107 120 93 119 259 314 496 583 269 306 400
486 494 679 151 309 165 632 39 894 -48 99 -161 214 -255 260 -131 63 -295 79
-436 42z"/>
</g>
</svg>
