<?xml version="1.0" standalone="no"?>
<!DOCTYPE svg PUBLIC "-//W3C//DTD SVG 20010904//EN"
 "http://www.w3.org/TR/2001/REC-SVG-20010904/DTD/svg10.dtd">
<svg version="1.0" xmlns="http://www.w3.org/2000/svg"
 width="279.000000pt" height="283.000000pt" viewBox="0 0 279.000000 283.000000"
 preserveAspectRatio="xMidYMid meet">

<g transform="translate(0.000000,283.000000) scale(0.100000,-0.10000)"
fill="#000000" stroke="none">
<path d="M1376 2677 c-22 -23 -123 -129 -224 -234 -100 -105 -312 -314 -470
-463 -380 -359 -404 -385 -452 -484 -60 -122 -73 -188 -67 -331 3 -95 10 -135
30 -193 76 -213 258 -378 482 -437 79 -21 242 -21 319 0 106 28 199 79 274
149 l33 31 -7 -30 c-14 -60 -81 -203 -129 -276 -27 -41 -93 -117 -147 -171
-68 -67 -96 -101 -92 -112 5 -14 58 -16 495 -16 483 0 489 0 489 20 0 12 -37
57 -94 113 -126 124 -191 224 -251 383 -33 87 -32 94 8 57 127 -122 326 -185
508 -162 168 21 289 78 400 190 128 129 201 304 203 489 1 109 -14 180 -57
265 -63 126 -74 138 -540 583 -163 156 -378 371 -478 478 -100 107 -184 194
-187 194 -2 0 -23 -19 -46 -43z"/>
</g>
</svg>
