<?xml version="1.0" standalone="no"?>
<!DOCTYPE svg PUBLIC "-//W3C//DTD SVG 20010904//EN"
 "http://www.w3.org/TR/2001/REC-SVG-20010904/DTD/svg10.dtd">
<svg version="1.0" xmlns="http://www.w3.org/2000/svg"
 width="816.000000pt" height="900.000000pt" viewBox="0 0 816.000000 900.000000"
 preserveAspectRatio="xMidYMid meet">
<metadata>
Created by potrace 1.10, written by Peter Selinger 2001-2011
</metadata>
<g transform="translate(0.000000,900.000000) scale(0.100000,-0.100000)"
fill="#000000" stroke="none">
<path d="M3960 8480 c-113 -7 -182 -19 -330 -56 -52 -14 -106 -27 -120 -30
-14 -3 -38 -12 -55 -19 -16 -8 -59 -27 -95 -43 -193 -88 -254 -123 -414 -242
-82 -60 -204 -178 -293 -282 -79 -93 -203 -272 -203 -293 0 -7 -6 -18 -14 -24
-8 -6 -20 -26 -27 -44 -7 -18 -27 -63 -44 -102 -68 -149 -124 -360 -145 -552
-19 -166 0 -567 29 -596 6 -6 11 -26 11 -44 0 -87 181 -522 248 -593 11 -12
26 -35 32 -51 7 -16 16 -29 21 -29 5 0 9 -9 9 -20 0 -23 -2 -23 -50 -11 -19 5
-62 13 -95 18 -71 9 -403 9 -460 0 -22 -4 -67 -11 -100 -16 -83 -11 -144 -28
-255 -69 -52 -19 -112 -41 -133 -49 -39 -14 -151 -70 -247 -124 -134 -76 -307
-215 -426 -342 -70 -76 -201 -242 -217 -277 -4 -8 -23 -40 -42 -70 -46 -75
-118 -223 -140 -290 -9 -30 -24 -71 -31 -90 -8 -19 -25 -82 -38 -140 -74 -313
-60 -684 36 -980 73 -227 169 -414 310 -601 137 -183 382 -393 583 -500 197
-105 333 -155 554 -201 137 -29 159 -31 366 -31 222 0 261 4 455 49 335 78
631 248 907 521 64 64 194 226 219 275 8 16 22 28 31 28 13 0 15 -10 9 -71 -4
-39 -12 -83 -17 -96 -5 -13 -9 -35 -9 -49 0 -14 -9 -53 -21 -87 -12 -34 -28
-87 -35 -117 -42 -159 -182 -456 -312 -660 -143 -224 -448 -555 -676 -735 -31
-26 -39 -38 -43 -75 -4 -38 -1 -48 17 -65 22 -20 39 -20 1386 -23 1491 -2
1421 -5 1441 54 16 49 -1 85 -69 139 -201 163 -407 379 -542 569 -118 165
-182 271 -247 406 -23 47 -45 92 -50 100 -5 8 -12 22 -15 30 -3 8 -12 27 -20
42 -8 14 -14 31 -14 37 0 6 -8 30 -18 54 -11 23 -24 60 -31 82 -7 22 -16 49
-20 60 -20 52 -35 99 -62 205 -50 195 -39 208 63 73 111 -149 277 -309 417
-405 105 -72 111 -75 266 -152 166 -82 180 -87 312 -121 50 -12 96 -25 100
-28 24 -15 300 -47 413 -48 33 -1 169 9 250 16 74 8 397 88 438 108 15 8 78
38 141 68 124 58 328 188 391 248 14 14 51 49 82 77 267 251 447 555 537 909
51 201 56 239 56 465 0 247 -14 350 -71 540 -29 94 -31 99 -68 186 -14 34 -26
66 -26 72 0 13 -170 296 -181 300 -4 2 -18 20 -31 40 -60 100 -303 332 -458
438 -56 38 -183 113 -230 135 -105 50 -174 79 -187 79 -8 0 -27 6 -41 14 -48
26 -173 58 -353 90 -112 21 -388 21 -479 1 -76 -17 -150 -19 -150 -5 0 5 18
33 40 62 46 61 177 322 210 418 12 36 26 74 30 85 15 38 39 140 57 240 28 156
25 522 -6 670 -12 61 -26 121 -31 135 -4 14 -16 52 -26 85 -9 33 -21 67 -25
75 -5 8 -31 70 -60 138 -28 67 -59 133 -68 145 -10 12 -30 45 -46 72 -58 101
-243 325 -328 398 -97 82 -162 132 -241 186 -84 57 -278 161 -300 161 -8 0
-19 7 -26 15 -7 8 -25 15 -40 15 -15 0 -33 7 -40 15 -7 8 -24 15 -37 15 -14 0
-37 6 -51 14 -15 8 -63 21 -107 30 -44 9 -100 21 -123 26 -81 19 -316 29 -462
20z"/>
</g>
</svg>
