<?xml version="1.0" standalone="no"?>
<!DOCTYPE svg PUBLIC "-//W3C//DTD SVG 20010904//EN"
 "http://www.w3.org/TR/2001/REC-SVG-20010904/DTD/svg10.dtd">
<svg version="1.0" xmlns="http://www.w3.org/2000/svg"
 width="149.000000pt" height="165.000000pt" viewBox="0 0 149.000000 165.000000"
 preserveAspectRatio="xMidYMid meet">

<g transform="translate(0.000000,165.000000) scale(0.100000,-0.100000)"
fill="#054148" stroke="none">
<path d="M0 825 l0 -825 745 0 745 0 0 825 0 825 -745 0 -745 0 0 -825z m1480
0 l0 -815 -735 0 -735 0 0 815 0 815 735 0 735 0 0 -815z"/>
<path d="M268 1418 l-137 -83 -3 -495 c-2 -272 -2 -500 0 -506 4 -14 276 -204
292 -204 9 0 93 69 235 192 6 5 -23 39 -75 87 l-85 79 -57 -56 -58 -56 0 427
c0 235 2 427 5 427 3 0 131 -115 283 -255 152 -140 283 -255 290 -255 9 0 12
34 12 138 l0 139 -271 249 c-150 137 -277 250 -283 252 -6 1 -73 -35 -148 -80z"/>
<path d="M940 1419 c-152 -128 -146 -107 -60 -186 40 -37 77 -69 81 -71 5 -2
34 18 64 43 l55 47 0 -427 0 -427 -107 99 c-60 55 -186 173 -282 262 -96 88
-178 161 -183 161 -4 0 -8 -63 -8 -139 l0 -139 270 -254 c149 -139 274 -254
278 -256 5 -1 71 37 147 85 l140 88 3 507 2 506 -142 91 c-78 50 -146 91 -152
90 -6 0 -54 -36 -106 -80z"/>
</g>
</svg>
