<svg
      xmlns="http://www.w3.org/2000/svg"
      xmlnsXlink="http://www.w3.org/1999/xlink"
      x="0"
      y="0"
      version="1"
      viewBox="0 0 140 190"
    >
      <defs>
        <linearGradient id="linearGradient5417">
          <stop offset="0" stopColor="#f0a700"></stop>
          <stop offset="1" stopColor="#ffed00"></stop>
        </linearGradient>
        <linearGradient id="linearGradient5407">
          <stop offset="0" stopColor="#f0eb00"></stop>
          <stop offset="1" stopColor="#ff0"></stop>
        </linearGradient>
        <linearGradient id="linearGradient3865">
          <stop offset="0" stopColor="#0083cc"></stop>
          <stop offset="1" stopColor="#24a4cc"></stop>
        </linearGradient>
        <linearGradient
          id="linearGradient16578"
          x1="356.44"
          x2="484.8"
          y1="437.5"
          y2="256.18"
          gradientTransform="matrix(.18682 0 0 .14486 74.301 109.48)"
          gradientUnits="userSpaceOnUse"
        >
          <stop offset="0" stopColor="#ffd8c1"></stop>
          <stop offset="1" stopColor="#ffeded"></stop>
        </linearGradient>
        <linearGradient
          id="linearGradient16580"
          x1="298.99"
          x2="449.32"
          y1="540.54"
          y2="415.54"
          gradientTransform="translate(99.215 121.46) scale(.14486)"
          gradientUnits="userSpaceOnUse"
          xlinkHref="#linearGradient3865"
        ></linearGradient>
        <linearGradient
          id="linearGradient16582"
          x1="111.39"
          x2="136.65"
          y1="198.46"
          y2="177.03"
          gradientTransform="scale(1.2554 .79653)"
          gradientUnits="userSpaceOnUse"
          xlinkHref="#linearGradient5417"
        ></linearGradient>
        <linearGradient
          id="linearGradient16584"
          x1="294.25"
          x2="312.09"
          y1="346.33"
          y2="322.14"
          gradientTransform="translate(97.094 122.81) scale(.14486)"
          gradientUnits="userSpaceOnUse"
        >
          <stop offset="0" stopColor="#c10000"></stop>
          <stop offset="1" stopColor="#ff433e"></stop>
        </linearGradient>
        <linearGradient
          id="linearGradient16586"
          x1="108.99"
          x2="112.7"
          y1="209.42"
          y2="205.04"
          gradientTransform="scale(1.2301 .81296)"
          gradientUnits="userSpaceOnUse"
          xlinkHref="#linearGradient5417"
        ></linearGradient>
        <linearGradient
          id="linearGradient16588"
          x1="106.41"
          x2="109.26"
          y1="231.76"
          y2="228.15"
          gradientTransform="scale(1.3632 .73355)"
          gradientUnits="userSpaceOnUse"
          xlinkHref="#linearGradient5417"
        ></linearGradient>
        <linearGradient
          id="linearGradient16590"
          x1="101.39"
          x2="105.55"
          y1="124.16"
          y2="120.97"
          gradientTransform="translate(43.646 73.72)"
          gradientUnits="userSpaceOnUse"
          xlinkHref="#linearGradient5407"
        ></linearGradient>
        <linearGradient
          id="linearGradient16592"
          x1="98.818"
          x2="112.89"
          y1="108.76"
          y2="103.33"
          gradientTransform="translate(39.501 74.756)"
          gradientUnits="userSpaceOnUse"
        >
          <stop offset="0" stopColor="#008200"></stop>
          <stop offset="1" stopColor="#00d000"></stop>
        </linearGradient>
        <linearGradient
          id="linearGradient16594"
          x1="103.56"
          x2="111.88"
          y1="65.109"
          y2="62.671"
          gradientTransform="translate(40.119 73.845)"
          gradientUnits="userSpaceOnUse"
          xlinkHref="#linearGradient5407"
        ></linearGradient>
        <linearGradient
          id="linearGradient16596"
          x1="93.5"
          x2="117.14"
          y1="62.938"
          y2="57.702"
          gradientTransform="translate(43.646 73.72)"
          gradientUnits="userSpaceOnUse"
          xlinkHref="#linearGradient3865"
        ></linearGradient>
        <linearGradient
          id="linearGradient16598"
          x1="104.75"
          x2="109.5"
          y1="57.469"
          y2="55.781"
          gradientUnits="userSpaceOnUse"
          xlinkHref="#linearGradient5407"
        ></linearGradient>
        <linearGradient
          id="linearGradient16600"
          x1="652.3"
          x2="410.91"
          y1="77.395"
          y2="344.42"
          gradientTransform="matrix(.18685 0 0 .14486 74.296 109.49)"
          gradientUnits="userSpaceOnUse"
        >
          <stop offset="0" stopColor="#fff"></stop>
          <stop offset="1" stopColor="#fff" stopOpacity="0"></stop>
        </linearGradient>
      </defs>
      <g>
        <g>
          <path
            fillOpacity="0.498"
            d="M21 5h103c8.86 0 16 7.136 16 16v153c0 8.86-7.14 16-16 16H21c-8.864 0-16-7.14-16-16V21c0-8.864 7.136-16 16-16z"
          ></path>
          <path
            fill="#e7e7e7"
            d="M17 1h103c8.86 0 16 7.136 16 16v153c0 8.86-7.14 16-16 16H17c-8.864 0-16-7.14-16-16V17C1 8.136 8.136 1 17 1z"
          ></path>
          <path
            fill="#c7891f"
            d="M19 3h103c8.86 0 16 7.136 16 16v153c0 8.86-7.14 16-16 16H19c-8.864 0-16-7.14-16-16V19c0-8.864 7.136-16 16-16z"
          ></path>
          <path
            fill="#fff"
            d="M18 2h103c8.86 0 16 7.136 16 16v153c0 8.86-7.14 16-16 16H18c-8.864 0-16-7.14-16-16V18C2 9.136 9.136 2 18 2z"
          ></path>
        </g>
      </g>
      <path
        fill="red"
        d="M18.683 12.234h6.396v21.359c0 2.947-.841 5.149-2.525 6.607-1.672 1.458-4.208 2.186-7.608 2.186H13.65v-4.61h.996c1.33 0 2.332-.354 3.007-1.062.687-.708 1.03-1.748 1.03-3.121V12.234"
      ></path>
      <path
        fill="red"
        d="M120 177h-6.4v-21.36c0-2.95.84-5.15 2.53-6.61 1.67-1.45 4.2-2.18 7.6-2.18h1.3v4.61h-1c-1.33 0-2.33.35-3 1.06-.69.71-1.03 1.75-1.03 3.12V177"
      ></path>
      <path
        fill="red"
        fillRule="evenodd"
        d="M20.41 48.665c-4.126 8.245-7.135 12.498-13.34 17.04 5.872 4.487 10.013 9.124 13.46 16.62 3.079-7.121 6.847-12.43 13.39-16.843-6.582-3.349-10.393-8.654-13.51-16.817z"
      ></path>
      <path
        fill="red"
        fillRule="evenodd"
        d="M118.34 106.34c-4.13 8.25-7.13 12.5-13.34 17.04 5.87 4.49 10.01 9.12 13.46 16.62 3.08-7.12 6.85-12.43 13.39-16.84-6.58-3.35-10.39-8.66-13.51-16.82z"
      ></path>
      <g transform="translate(-79.637 -71.25)">
        <path d="M147.53 125.56c-5.97 3.78-13.47-3.16-17.45 4.88-3.5 4.78 7.53 6.18.57 10.43-4.76 5.12-4.48 7.38-.37 8-1.19 5.67-.32 15.18 2.27 20.36-3.21 3.9-.8 2.56 3.55 3.38-1.35 2.15-.57 10.05-5.2 12.48-2.33 7.03-.59 14.65-1.13 21.91 11.28 4.75 24.63 5.29 35.4 2.76 4.74-.99 10.15-1.37 9.2-8.13.28-8.43 1.28-19.52-7.91-23.83-5.38-.76-7.17-4.39-3.05-9.55 3.07-8.36 6.44-4.87 11.15-6.98 4.9-1.31-7-4.54-5.43-9.98-1.52-4.25-3.38-9.25-6.43-12.71 7.68-.69 8.5-8.69 2.26-10.33-6.19-4.12-9.84 2.91-14.55-2.37-.78-.02-2.1-.51-2.88-.32z"></path>
        <path
          fill="url(#linearGradient16578)"
          d="M164.87 156.82c0 11.42-7.56 20.68-16.88 20.68s-16.88-9.26-16.88-20.68c0-11.41 7.56-20.67 16.88-20.67s16.88 9.26 16.88 20.67z"
        ></path>
        <path
          fill="url(#linearGradient16580)"
          d="M144.48 177.98c-7.05 0-12.72 5.67-12.72 12.72v14.93c9.38 4.65 29.52 4.89 40.62 0V190.7c0-7.05-5.68-12.72-12.73-12.72h-15.17z"
        ></path>
        <path
          fill="url(#linearGradient16582)"
          fillRule="evenodd"
          d="M129.28 147.19c2.52-4.53 5.05-13.18 19.12-13.09 21.84.64 16.63 23.38 24.45 25.84-4.85 1.57-7.3 2.92-14.54.43.79-5.7-.5-9.88-3.92-12.82-4.27 2.24-20.74 1.18-25.11-.36z"
        ></path>
        <g transform="matrix(.14486 0 0 .0979 96.895 133.54)">
          <path
            fill="#fff"
            d="M353 245.86c0 11.87-9.41 21.5-21 21.5s-21-9.63-21-21.5 9.41-21.5 21-21.5 21 9.63 21 21.5z"
            transform="translate(-4 -6)"
          ></path>
          <path
            fill="#0f90cc"
            d="M353 245.86c0 11.87-9.41 21.5-21 21.5s-21-9.63-21-21.5 9.41-21.5 21-21.5 21 9.63 21 21.5z"
            transform="matrix(.57143 0 0 .83721 129.29 34.524)"
          ></path>
          <path
            d="M353 245.86c0 11.87-9.41 21.5-21 21.5s-21-9.63-21-21.5 9.41-21.5 21-21.5 21 9.63 21 21.5z"
            transform="matrix(.35714 0 0 .67442 195.93 76.048)"
          ></path>
        </g>
        <g transform="matrix(.14486 0 0 .0979 86.807 133.2)">
          <path
            fill="#fff"
            d="M353 245.86c0 11.87-9.41 21.5-21 21.5s-21-9.63-21-21.5 9.41-21.5 21-21.5 21 9.63 21 21.5z"
            transform="translate(-4 -6)"
          ></path>
          <path
            fill="#0f90cc"
            d="M353 245.86c0 11.87-9.41 21.5-21 21.5s-21-9.63-21-21.5 9.41-21.5 21-21.5 21 9.63 21 21.5z"
            transform="matrix(.57143 0 0 .83721 129.29 34.524)"
          ></path>
          <path
            d="M353 245.86c0 11.87-9.41 21.5-21 21.5s-21-9.63-21-21.5 9.41-21.5 21-21.5 21 9.63 21 21.5z"
            transform="matrix(.35714 0 0 .67442 195.93 76.048)"
          ></path>
        </g>
        <path
          fill="url(#linearGradient16584)"
          fillRule="evenodd"
          d="M136.44 170.2c1.85 3.63 6.9 1.95 11.73 0-5.33.56-9 .97-11.73 0z"
        ></path>
        <path
          fill="#004cb0"
          d="M158.58 193.86l1.26.12 1.37 14.51-3.46.47.83-15.1z"
        ></path>
        <path
          fillRule="evenodd"
          d="M138.64 158.15c-.8 1.28-1.95 3.4-1.78 4.37.16.97 1.65.76 2.44 1.32l.33-.47c-.7-.5-1.78-.01-1.92-.81-.13-.8.68-2.92 1.42-4.12l-.49-.29z"
        ></path>
        <path
          fill="url(#linearGradient16586)"
          fillRule="evenodd"
          d="M139.93 165.8c-3.8.38-6.13 3.3-8.06 5.42 0 0 6.24-3.46 8.2-3.39-.14-.49.07-1.12-.14-2.03z"
        ></path>
        <path
          fill="url(#linearGradient16588)"
          fillRule="evenodd"
          d="M140.8 165.66c3.38.34 9.84 2.97 10.14 5.45 0 0-7.88-4.21-9.73-3.56-.02-.51-.34-.96-.41-1.89z"
        ></path>
        <path
          fill="url(#linearGradient16590)"
          fillRule="evenodd"
          d="M138.27 179.65c3.63 11.22 8.7 20.95 14.46 29.54l3.69-.11c-5.74-9.21-11.73-19.6-15.15-30.81 0 0-2.04.62-3 1.38z"
        ></path>
        <path
          fill="url(#linearGradient16592)"
          fillRule="evenodd"
          d="M135.69 176.13l-.25 10.25 9.31-5.69v1.44l3.69.31-.06-1.93 12.12 5.43-1.25-12.06-10.69 5.44-.25-1.81-3.75-.25v1.93l-8.87-3.06z"
        ></path>
        <path
          fill="url(#linearGradient16594)"
          fillRule="evenodd"
          d="M135.49 136.03l-.53 2.6c7.66 2.23 17.9 1.88 26.76.92-.02-.36-.35-2.52-.35-2.52-8.52.88-19.42.81-25.88-1z"
        ></path>
        <path
          fill="url(#linearGradient16596)"
          fillRule="evenodd"
          d="M147.74 137.59c28.52 3.84 23.48-13.39 1.57-7.62-21.15-7.46-26.23 9.83-1.57 7.62z"
        ></path>
        <path
          fill="url(#linearGradient16598)"
          d="M110.81 56.406a3.719 1.656 0 11-7.43 0 3.719 1.656 0 117.43 0z"
          transform="translate(41.306 72.782)"
        ></path>
        <path
          fill="url(#linearGradient16600)"
          d="M148.4 127.54c-1.81 0-3.14.62-3.47 1.38-12.88-2.72-17.58 4.48-9.53 7.56l-.41 2.06c-2.99 2.79-4.39 6.28-5.71 8.66.75.26 2.22.5 3.56.72-1.07 2.71-1.72 5.7-1.72 8.9 0 4.48 1.18 8.59 3.16 11.97-.85.82-1.72 1.68-2.41 2.44 0 0 1.46-.78 3-1.53 3.03 4.62 7.6 7.65 12.78 7.78l-3.09-.22v.72h-.06c-.92 0-1.83.1-2.69.28l-6.13-2.12-.12 5.53c-2.33 2.3-3.78 5.48-3.78 9.03v14.94c4.95 2.45 12.89 3.61 20.94 3.5.01.02.01.04.03.06l3.69-.09c-.05-.08-.11-.17-.16-.25.49-.04.98-.09 1.47-.13v.25l3.47-.47v-.03c4.13-.58 8.02-1.46 11.15-2.84V190.7c0-7.04-5.65-12.7-12.68-12.72l-.44-4.09-8.03 4.09h-2.85l-.06-.47h-.22c7.93-.05 14.52-6.81 16.28-15.87 3.11.16 5.35-.66 8.51-1.69-5.49-1.72-4.74-13.32-11.23-20.37.02-.01.05 0 .07 0-.02-.3-.21-1.58-.28-2.1 10.99-2.38 5.53-10.84-9.69-7.9.08-.15.37-.23.37-.38 0-.91-1.66-1.66-3.72-1.66z"
        ></path>
      </g>
    </svg>