<svg version="1.0" xmlns="http://www.w3.org/2000/svg" width="198.667" height="220" viewBox="0 0 149 165">
    <g fill="current" stroke="current">
        <path d="m26.8 23.2-13.7 8.3-.3 49.5c-.2 27.2-.2 50 0 50.6C13.2 133 40.4 152 42 152c.9 0 9.3-6.9 23.5-19.2.6-.5-2.3-3.9-7.5-8.7l-8.5-7.9-5.7 5.6-5.8 5.6V84.7c0-23.5.2-42.7.5-42.7s13.1 11.5 28.3 25.5C82 81.5 95.1 93 95.8 93c.9 0 1.2-3.4 1.2-13.8V65.3L69.9 40.4c-15-13.7-27.7-25-28.3-25.2-.6-.1-7.3 3.5-14.8 8z" stroke-width=".1"/>
        <path d="M94 23.1c-15.2 12.8-14.6 10.7-6 18.6 4 3.7 7.7 6.9 8.1 7.1.5.2 3.4-1.8 6.4-4.3l5.5-4.7v85.4l-10.7-9.9c-6-5.5-18.6-17.3-28.2-26.2C59.5 80.3 51.3 73 50.8 73c-.4 0-.8 6.3-.8 13.9v13.9l27 25.4c14.9 13.9 27.4 25.4 27.8 25.6.5.1 7.1-3.7 14.7-8.5l14-8.8.3-50.7.2-50.6-14.2-9.1c-7.8-5-14.6-9.1-15.2-9-.6 0-5.4 3.6-10.6 8z" stroke-width=".1"/>
    </g>
</svg>
